<svg viewBox="0 0 680 120" xmlns="http://www.w3.org/2000/svg" width="680" height="120">
  <rect width="680" height="120" fill="#FFFFFF"></rect>
  
  <g transform="translate(12, 7) scale(0.26)">
    <g fill="none">
      <path d="M 80,255 Q 80,100 200,100 Q 320,100 320,255" stroke="#0087A8" stroke-width="18" stroke-linecap="butt"></path>
      <path d="M 116,255 Q 116,138 200,138 Q 284,138 284,255" stroke="#0087A8" stroke-width="14" stroke-linecap="butt" opacity="0.82"></path>
      <path d="M 152,255 Q 152,176 200,176 Q 248,176 248,255" stroke="#0087A8" stroke-width="11" stroke-linecap="butt" opacity="0.6"></path>
      <line x1="62" y1="255" x2="338" y2="255" stroke="#0087A8" stroke-width="16" stroke-linecap="round"></line>
      <line x1="116" y1="255" x2="116" y2="278" stroke="#0087A8" stroke-width="11" stroke-linecap="round"></line>
      <line x1="200" y1="255" x2="200" y2="286" stroke="#0087A8" stroke-width="11" stroke-linecap="round"></line>
      <line x1="284" y1="255" x2="284" y2="278" stroke="#0087A8" stroke-width="11" stroke-linecap="round"></line>
    </g>
    <circle cx="200" cy="255" r="10" fill="#0087A8"></circle>
    <circle cx="116" cy="255" r="5.5" fill="#0087A8" opacity="0.45"></circle>
    <circle cx="284" cy="255" r="5.5" fill="#0087A8" opacity="0.45"></circle>
  </g>
  
  <text x="118" y="54" font-family="Poppins, &#39;Trebuchet MS&#39;, Arial, sans-serif" font-size="34" font-weight="700" fill="#0087A8" letter-spacing="1.2">MASUL DIGITAL</text>
  <text x="120" y="78" font-family="Arial, sans-serif" font-size="10.5" fill="#0087A8" opacity="0.55" letter-spacing="4.5">DIGITAL SERVICES</text>
</svg>